<?xml version="1.0" standalone="no"?>
<!DOCTYPE svg PUBLIC "-//W3C//DTD SVG 20010904//EN"
 "http://www.w3.org/TR/2001/REC-SVG-20010904/DTD/svg10.dtd">
<svg version="1.0" xmlns="http://www.w3.org/2000/svg"
 width="156.000000pt" height="156.000000pt" viewBox="0 0 156.000000 156.000000"
 preserveAspectRatio="xMidYMid meet">
<metadata>
Created by potrace 1.14, written by Peter Selinger 2001-2017
</metadata>
<g transform="translate(0.000000,156.000000) scale(0.100000,-0.100000)"
fill="#000000" stroke="none">
<path d="M369 1025 c-8 -122 -8 -145 1 -145 6 0 9 3 8 8 -5 18 36 74 71 98 33
21 49 25 98 23 32 -2 70 -10 84 -18 35 -20 78 -83 61 -89 -13 -4 -57 -82 -46
-82 4 0 2 -6 -3 -12 -9 -13 -9 -33 1 -75 6 -29 38 -83 48 -83 19 0 5 -24 -36
-65 -53 -52 -114 -67 -181 -44 l-40 14 -3 96 c-3 104 7 129 50 129 12 0 18 3
14 7 -7 8 -176 12 -176 4 0 -2 8 -13 17 -23 14 -15 17 -40 18 -121 l0 -101 50
-19 c50 -19 153 -26 211 -15 42 8 105 41 132 71 29 31 63 26 117 -20 102 -87
265 -74 346 28 40 51 32 61 -12 14 -42 -45 -88 -65 -146 -65 -52 0 -100 20
-133 55 l-23 25 28 27 c76 75 72 198 -8 263 l-21 17 35 34 c42 41 49 44 124
44 74 0 107 -22 147 -98 l27 -52 -5 89 c-2 49 -6 92 -9 94 -2 3 -12 -5 -22
-17 -17 -20 -19 -20 -48 -5 -41 22 -121 29 -172 15 -23 -6 -62 -27 -86 -45
-30 -23 -58 -35 -87 -38 -38 -3 -48 0 -79 29 -20 18 -55 39 -78 47 -49 17
-141 15 -201 -4 -39 -12 -44 -12 -57 6 -14 19 -14 19 -16 -1z"/>
<path d="M74 805 c-4 -8 -13 -15 -20 -15 -29 0 -28 -31 2 -56 16 -13 32 -23
36 -24 10 0 58 45 58 55 0 11 -49 55 -61 55 -5 0 -12 -7 -15 -15z"/>
<path d="M1437 792 l-27 -27 31 -28 c17 -15 33 -27 35 -27 2 0 18 12 34 27
l30 26 -27 28 c-34 35 -41 35 -76 1z"/>
</g>
</svg>
